HIERARCHY
ROOT Hips
{
	OFFSET 0.00000 0.00000 0.00000
	CHANNELS 6 Xposition Yposition Zposition Yrotation Zrotation Xrotation 
	JOINT Lumbar
	{
		OFFSET 0 0 0
		CHANNELS 3 Zrotation Xrotation Yrotation
		JOINT Neck
		{
			OFFSET 0.00 0.2701 0.00
			CHANNELS 3 Zrotation Xrotation Yrotation
			End Site
			{
				OFFSET 0.00 0.1379 0.00
			}
		}
		JOINT RightShoulder
		{
			OFFSET 0.0119 0.2289 0.1181
			CHANNELS 3 Zrotation Xrotation Yrotation
			JOINT RightElbow
			{
				OFFSET 0.00 -0.1475 0.00
				CHANNELS 2 Zrotation Yrotation
				JOINT RightWrist
				{
					OFFSET 0.00 -0.1605 0.00
					CHANNELS 2 Zrotation Xrotation
					End Site
					{
						OFFSET 0.0040 -0.1068 0.0006
					}
				}
			}
		}
		JOINT LeftShoulder
		{
			OFFSET 0.0119 0.2289 -0.1181
			CHANNELS 3 Zrotation Xrotation Yrotation
			JOINT LeftElbow
			{
				OFFSET 0.00 -0.1475 0.00
				CHANNELS 2 Zrotation Yrotation
				JOINT LeftWrist
				{
					OFFSET 0.00 -0.1605 0.00
					CHANNELS 2 Zrotation Xrotation
					End Site
					{
						OFFSET 0.0040 -0.1068 -0.0006
					}
				}
			}
		}
	}
	JOINT RightHip
	{
		OFFSET 0.0316 -0.0424 0.0458
		CHANNELS 3 Zrotation Xrotation Yrotation
		JOINT RightKnee
		{
			OFFSET 0.00 -0.2438 0.00
			CHANNELS 1 Zrotation
			JOINT RightAnkle
			{
				OFFSET 0.00 -0.2449 0.00
				CHANNELS 3 Zrotation Xrotation Yrotation
				End Site
				{
					OFFSET 0.1237 -0.0542 0.0051
				}
			}
		}
	}
	JOINT LeftHip
	{
		OFFSET 0.0316 -0.0424 -0.0458
		CHANNELS 3 Zrotation Xrotation Yrotation
		JOINT LeftKnee
		{
			OFFSET 0.00 -0.2438 0.00
			CHANNELS 1 Zrotation
			JOINT LeftAnkle
			{
				OFFSET 0.00 -0.2449 0.00
				CHANNELS 3 Zrotation Xrotation Yrotation
				End Site
				{
					OFFSET 0.1237 -0.0542 -0.0051
				}
			}
		}
	}
}
MOTION
Frames: 25
Frame Time: 0.02
-0.0001 3e-05 -0.00116 174.31481 -43.95431 -0.14161 56.70985 -0.15821 1.9922 -6.72517 -2.15533 -0.13878 137.6276 -78.17701 -69.49645 14.41485 72.90081 4.12987 -8.08345 148.69435 76.68313 85.55469 9.06587 -81.62663 3.11452 10.03274 49.49054 -1.97094 -4.14026 -19.81937 -8.36762 -5.25452 -3.52014 50.69445 4.59322 0.52638 -24.02898 -9.49107 5.5099 3.74849
-0.00041 -1e-05 -0.00118 174.25908 -43.979 -0.21568 56.80434 -0.14262 1.90069 -6.7422 -2.00711 -0.13926 136.50342 -78.15604 -70.36601 14.25909 72.86964 4.12816 -8.04156 148.95066 76.66669 85.45209 9.10464 -81.62875 3.10585 10.03907 49.46527 -1.98859 -4.55109 -19.80015 -8.31611 -5.21174 -3.49435 50.68174 4.69449 0.77521 -24.02754 -9.4489 5.49482 3.73615
-0.00072 -5e-05 -0.0012 174.20356 -44.00362 -0.28953 56.89861 -0.12705 1.80935 -6.75922 -1.85926 -0.13974 135.38148 -78.13509 -71.2337 14.10362 72.83853 4.1264 -7.9998 149.20606 76.65035 85.3499 9.14337 -81.63084 3.09717 10.04552 49.44003 -2.00615 -4.96037 -19.78099 -8.26478 -5.16911 -3.46866 50.66903 4.79548 1.02353 -24.02611 -9.40682 5.47977 3.72384
-0.00103 -9e-05 -0.00121 174.148 -44.02823 -0.36338 56.99282 -0.11151 1.71811 -6.7762 -1.71148 -0.14023 134.26054 -78.11417 -72.10073 13.94831 72.80745 4.12468 -7.95804 149.46159 76.63397 85.2476 9.18204 -81.63295 3.08853 10.05186 49.41484 -2.02374 -5.36987 -19.76182 -8.21344 -5.12646 -3.44295 50.65635 4.89644 1.27163 -24.02467 -9.36478 5.46473 3.71154
-0.00134 -0.00013 -0.00123 174.09225 -44.05292 -0.43743 57.08724 -0.09598 1.62675 -6.79318 -1.56337 -0.14071 133.13788 -78.09328 -72.96927 13.79277 72.77633 4.12305 -7.91613 149.71802 76.61745 85.14493 9.2207 -81.6351 3.07993 10.05802 49.3896 -2.04144 -5.78108 -19.74261 -8.16191 -5.08364 -3.41713 50.64368 4.99767 1.52017 -24.02323 -9.32267 5.44968 3.69922
-0.00165 -0.00017 -0.00125 174.03721 -44.07737 -0.51085 57.18117 -0.08031 1.53545 -6.81027 -1.41609 -0.14119 132.01756 -78.0722 -73.8351 13.63746 72.74522 4.12102 -7.87469 149.97118 76.60149 85.04379 9.25957 -81.63703 3.07108 10.06505 49.36436 -2.0587 -6.1863 -19.72355 -8.11101 -5.0414 -3.3917 50.63088 5.09815 1.76803 -24.02182 -9.28065 5.43462 3.68693
-0.00197 -0.00021 -0.00127 173.98077 -44.10228 -0.58547 57.27598 -0.06493 1.44413 -6.82712 -1.26727 -0.14168 130.89365 -78.0515 -74.7055 13.48186 72.71413 4.11978 -7.83237 150.23082 76.58445 84.93949 9.298 -81.63943 3.06273 10.07037 49.33919 -2.07679 -6.60296 -19.70421 -8.05892 -4.99807 -3.36554 50.61837 5.20001 2.01692 -24.02034 -9.23852 5.41959 3.6746
-0.00228 -0.00025 -0.00128 173.92568 -44.12674 -0.65897 57.36996 -0.04929 1.35284 -6.84421 -1.11992 -0.14217 129.77327 -78.03049 -75.57158 13.32655 72.68303 4.11783 -7.79083 150.48416 76.56837 84.83844 9.33679 -81.64137 3.05392 10.07719 49.31391 -2.0942 -7.00939 -19.68512 -8.0079 -4.95572 -3.34003 50.60556 5.30061 2.26497 -24.01893 -9.19646 5.40452 3.66229
-0.00259 -0.00028 -0.00129 173.87199 -44.15077 -0.73119 57.46308 -0.03332 1.26149 -6.86155 -0.97411 -0.14264 128.65564 -78.0089 -76.43332 13.1714 72.65186 4.11492 -7.75037 150.73117 76.55358 84.74002 9.37624 -81.64283 3.04453 10.08619 49.28866 -2.11046 -7.40217 -19.66632 -7.95829 -4.91465 -3.31537 50.5925 5.39968 2.51168 -24.01759 -9.15456 5.38946 3.65004
-0.0029 -0.00033 -0.00133 173.80948 -44.17765 -0.81106 57.56161 -0.01918 1.17017 -6.87728 -0.81867 -0.14317 127.51743 -77.99004 -77.32289 13.01475 72.62092 4.11725 -7.70407 151.01873 76.53171 84.62244 9.41258 -81.64728 3.03844 10.08368 49.26372 -2.13238 -7.87002 -19.64581 -7.90084 -4.86644 -3.28599 50.58121 5.50761 2.76519 -24.01581 -9.11196 5.37452 3.63758
-0.00321 -0.00036 -0.00131 173.76606 -44.19829 -0.87457 57.64839 -0.00124 1.07902 -6.89651 -0.68406 -0.14357 126.42588 -77.96585 -78.15175 12.86166 72.58961 4.1087 -7.66983 151.21809 76.52457 84.54785 9.45504 -81.64531 3.02542 10.10476 49.23782 -2.14295 -8.18172 -19.62895 -7.85976 -4.83316 -3.26645 50.56599 5.59681 3.00491 -24.01496 -9.07071 5.3592 3.62548
-0.00351 -0.00038 -0.00117 173.7717 -44.20342 -0.89474 57.70534 0.02768 0.9866 -6.92477 -0.6029 -0.14367 125.43507 -77.92346 -78.82922 12.71498 72.55635 4.06853 -7.67114 151.19294 76.56017 84.56855 9.51769 -81.62616 2.99232 10.19666 49.21157 -2.11724 -8.04231 -19.62192 -7.86544 -4.84252 -3.27519 50.5415 5.6342 3.20082 -24.01663 -9.03426 5.34391 3.615
-0.00381 -0.0004 -0.00097 173.79715 -44.20194 -0.89817 57.74996 0.06031 0.89474 -6.95669 -0.5434 -0.14365 124.49522 -77.8765 -79.44286 12.57242 72.52297 4.01775 -7.68414 151.07474 76.61026 84.63472 9.58566 -81.60024 2.95206 10.31089 49.18387 -2.0811 -7.7502 -19.6186 -7.88723 -4.86658 -3.2936 50.51275 5.65267 3.38322 -24.01923 -8.99905 5.3281 3.60482
-0.00411 -0.00041 -0.00079 173.81569 -44.20253 -0.90829 57.79873 0.09092 0.80369 -6.98725 -0.47634 -0.14367 123.55112 -77.83384 -80.07585 12.43027 72.49017 3.97295 -7.69012 150.98929 76.652 84.69733 9.64923 -81.57748 2.91629 10.41123 49.15535 -2.05307 -7.54284 -19.61366 -7.90043 -4.88282 -3.30677 50.48499 5.6803 3.57672 -24.02141 -8.96241 5.31172 3.59404
-0.00441 -0.00043 -0.00062 173.82533 -44.20727 -0.92235 57.85392 0.12299 0.70791 -7.01633 -0.39947 -0.14373 122.53125 -77.78136 -80.74968 12.2788 72.45483 3.92323 -7.70316 150.94904 76.70061 84.69564 9.722 -81.55541 2.87691 10.52838 49.13322 -2.01076 -7.27071 -19.60837 -7.91894 -4.90387 -3.32351 50.4613 5.7063 3.75248 -24.02355 -8.929 5.29841 3.58501
-0.00471 -0.00045 -0.00043 173.85831 -44.20151 -0.92411 57.89243 0.15282 0.62243 -7.04961 -0.34844 -0.1437 121.67633 -77.74879 -81.32307 12.14734 72.42513 3.88125 -7.70449 150.78616 76.73912 84.82886 9.77582 -81.52896 2.8413 10.61459 49.09726 -1.99575 -7.09686 -19.60479 -7.9303 -4.91844 -3.33514 50.428 5.73025 3.95796 -24.02605 -8.88972 5.27899 3.57264
-0.00499 -0.00047 -0.0002 173.95008 -44.1708 -0.89715 57.89092 0.17625 0.56263 -7.09148 -0.36117 -0.14339 121.28745 -77.76744 -81.63766 12.07198 72.40925 3.8625 -7.67014 150.34531 76.741 85.36768 9.78509 -81.49876 2.83106 10.6176 49.02516 -2.05866 -7.23604 -19.60434 -7.91716 -4.91104 -3.32993 50.37016 5.7617 4.28464 -24.0288 -8.82884 5.2394 3.54879
-0.00526 -0.00051 6e-05 174.06478 -44.12922 -0.85816 57.87236 0.19711 0.51376 -7.13784 -0.39959 -0.14306 121.04531 -77.80705 -81.85328 12.01538 72.40041 3.85149 -7.62469 149.76525 76.73419 86.00511 9.7735 -81.45973 2.8194 10.58542 48.93893 -2.14943 -7.47854 -19.60574 -7.89642 -4.89671 -3.31931 50.30258 5.79036 4.63594 -24.03202 -8.76287 5.19424 3.52191
-0.00553 -0.00054 0.0003 174.1695 -44.09111 -0.82395 57.85983 0.21874 0.46152 -7.18349 -0.42777 -0.14276 120.73763 -77.84046 -82.11174 11.95005 72.38819 3.83819 -7.58341 149.23927 76.73351 86.60309 9.76538 -81.42474 2.8035 10.56662 48.85802 -2.2275 -7.67112 -19.6066 -7.8797 -4.88588 -3.31141 50.23884 5.81449 4.95131 -24.03531 -8.70269 5.15398 3.49791
-0.00582 -0.00057 0.00055 174.27312 -44.05926 -0.79214 57.85469 0.24236 0.40223 -7.22362 -0.45062 -0.14223 120.48103 -77.8603 -82.37519 11.88931 72.37251 3.82171 -7.54221 148.79791 76.72003 87.29214 9.78242 -81.40346 2.8202 10.56714 48.78151 -2.30536 -7.87134 -19.60582 -7.86118 -4.87409 -3.30275 50.1775 5.86164 5.36685 -24.03727 -8.62826 5.10403 3.46778
-0.00607 -0.0006 0.00079 174.38415 -44.01154 -0.7526 57.82954 0.26093 0.36063 -7.27631 -0.4904 -0.14234 120.08433 -77.91265 -82.60786 11.81894 72.371 3.81084 -7.5031 148.0869 76.73611 87.67368 9.74253 -81.33397 2.7534 10.50937 48.69272 -2.39043 -8.08159 -19.60946 -7.84437 -4.86244 -3.29425 50.1088 5.86142 5.58454 -24.04228 -8.58178 5.07254 3.44941
-0.00623 -0.00061 0.00102 174.50986 -43.92609 -0.69568 57.7598 0.26846 0.36246 -7.36138 -0.57015 -0.1429 119.85319 -78.04926 -82.74225 11.76173 72.36431 3.82992 -7.42564 147.19004 76.78162 88.45484 9.55853 -81.29828 2.58671 10.38461 48.57213 -2.48822 -8.30023 -19.61966 -7.83395 -4.85284 -3.28741 50.02354 5.72264 5.20842 -24.05398 -8.61806 5.09695 3.46665
-0.00633 -0.00062 0.00125 174.64187 -43.82472 -0.63145 57.66946 0.2707 0.38278 -7.4586 -0.66581 -0.14433 119.37142 -78.21303 -82.84386 11.69012 72.38144 3.84495 -7.35678 145.92786 76.86015 88.73404 9.32491 -81.1933 2.31095 10.18988 48.44024 -2.59236 -8.5252 -19.63521 -7.82539 -4.84346 -3.28081 49.93124 5.53803 4.63976 -24.06903 -8.68182 5.13944 3.49536
-0.00645 -0.00064 0.00147 174.77136 -43.7281 -0.56978 57.58424 0.27365 0.39571 -7.55167 -0.75465 -0.14628 118.61128 -78.37093 -83.0013 11.59066 72.41323 3.85937 -7.3179 144.49091 76.96811 88.34605 9.09795 -80.99977 2.00069 9.96656 48.31401 -2.69394 -8.74389 -19.65169 -7.81607 -4.83405 -3.27417 49.84093 5.37986 4.18697 -24.0836 -8.73015 5.17134 3.51723
-0.00662 -0.00065 0.00171 174.9014 -43.64048 -0.51022 57.51595 0.28301 0.40243 -7.64125 -0.84354 -0.1445 119.48961 -78.5225 -83.03388 11.61969 72.33006 3.91085 -7.14611 144.49296 76.91729 91.54085 8.90254 -81.27308 2.04851 9.98242 48.18376 -2.79533 -8.97976 -19.65403 -7.80637 -4.8245 -3.26729 49.75431 5.19746 3.61681 -24.09378 -8.79075 5.21315 3.54588
